<?xml version="1.0" encoding="UTF-8" standalone="no"?>
<!-- Created with Inkscape (http://www.inkscape.org/) -->

<svg
   xmlns:dc="http://purl.org/dc/elements/1.1/"
   xmlns:cc="http://creativecommons.org/ns#"
   xmlns:rdf="http://www.w3.org/1999/02/22-rdf-syntax-ns#"
   xmlns:svg="http://www.w3.org/2000/svg"
   xmlns="http://www.w3.org/2000/svg"
   xmlns:sodipodi="http://sodipodi.sourceforge.net/DTD/sodipodi-0.dtd"
   xmlns:inkscape="http://www.inkscape.org/namespaces/inkscape"
   width="744.09448819"
   height="1052.3622047"
   id="svg2"
   version="1.1"
   inkscape:version="0.48.3.1 r9886"
   sodipodi:docname="New document 1.2012_11_05_21_51_00.0.svg">
  <defs
     id="defs4" />
  <sodipodi:namedview
     id="base"
     pagecolor="#ffffff"
     bordercolor="#666666"
     borderopacity="1.0"
     inkscape:pageopacity="0.0"
     inkscape:pageshadow="2"
     inkscape:zoom="0.175"
     inkscape:cx="-532.14286"
     inkscape:cy="862.85714"
     inkscape:document-units="px"
     inkscape:current-layer="layer1"
     showgrid="false"
     inkscape:window-width="1366"
     inkscape:window-height="719"
     inkscape:window-x="0"
     inkscape:window-y="22"
     inkscape:window-maximized="1"
     showguides="true"
     inkscape:guide-bbox="true" />
  <metadata
     id="metadata7">
    <rdf:RDF>
      <cc:Work
         rdf:about="">
        <dc:format>image/svg+xml</dc:format>
        <dc:type
           rdf:resource="http://purl.org/dc/dcmitype/StillImage" />
        <dc:title></dc:title>
      </cc:Work>
    </rdf:RDF>
  </metadata>
  <g
     inkscape:label="Layer 1"
     inkscape:groupmode="layer"
     id="layer1">
    <g
       id="g4511">
      <path
         inkscape:connector-curvature="0"
         id="path2985"
         d="m 70.21875,-228.0625 c -82.165121,0.32134 -162.189726,43.64907 -208.07297,111.70893 -39.98521,58.357882 -53.97757,133.750489 -37.51787,202.624008 17.81466,76.595122 72.7285,143.037802 144.739591,174.851822 71.592853,32.10741 158.213229,28.9221 226.733339,-9.17132 C 266.1429,213.80582 316.41113,141.92936 326.8125,62.6875 c 9.51551,-68.7735379 -9.96236,-141.07547 -53.68255,-194.9402 -48.37599,-60.70659 -125.06101,-97.48763 -202.9112,-95.8098 z m 1.3125,32.375 c 76.49564,-1.42132 151.74352,40.22696 191.64514,105.326345 37.84952,60.229768 44.1704,138.915625 16.29236,204.329905 -28.65669,68.79547 -93.49194,121.09543 -167.06332,133.44132 -68.500942,12.32405 -142.090125,-9.44344 -192.34293,-57.69132 -50.42304,-47.28564 -76.67981,-118.922108 -68.38751,-187.681153 8.13138,-74.313671 56.300458,-142.741017 123.722564,-175.040997 29.8396045,-14.61698 62.883682,-22.42767 96.133696,-22.6841 z"
         style="fill:#1a1a1a;fill-opacity:1;stroke:#000000;stroke-width:0;stroke-linecap:round;stroke-linejoin:round;stroke-miterlimit:4;stroke-opacity:1;stroke-dasharray:none" />
      <path
         style="font-size:medium;font-style:normal;font-variant:normal;font-weight:normal;font-stretch:normal;text-indent:0;text-align:start;text-decoration:none;line-height:normal;letter-spacing:normal;word-spacing:normal;text-transform:none;direction:ltr;block-progression:tb;writing-mode:lr-tb;text-anchor:start;baseline-shift:baseline;color:#000000;fill:#000000;fill-opacity:1;stroke:none;stroke-width:42.20000076;marker:none;visibility:visible;display:inline;overflow:visible;enable-background:accumulate;font-family:Sans;-inkscape-font-specification:Sans"
         d="m 214.64558,-76.164684 c -13.28323,0 -24.04699,10.779239 -24.04699,24.062455 0,3.01781 0.56356,5.895875 1.57837,8.557264 l -58.09034,67.11183 c -1.84194,-0.451725 -3.7597,-0.696341 -5.74094,-0.696341 -6.73556,0 -12.82572,2.780506 -17.19189,7.241948 L 53.280086,-2.9869471 C 52.353687,-15.423761 41.984101,-25.223452 29.310473,-25.223452 c -13.283228,0 -24.0469887,10.763761 -24.0469887,24.046989 0,2.993575 0.5480754,5.851736 1.5474206,8.495368 L -59.945007,84.256881 c -2.406315,-0.808016 -4.981255,-1.253411 -7.659756,-1.253411 -13.283234,0 -24.046993,10.763755 -24.046993,24.04699 0,13.28323 10.763759,24.06246 24.046993,24.06246 13.283222,0 24.046983,-10.77923 24.046983,-24.06246 0,-2.87128 -0.500722,-5.61754 -1.423629,-8.170425 L 21.975673,21.725426 c 2.313923,0.740728 4.775008,1.145098 7.3348,1.145098 6.226511,0 11.899366,-2.354057 16.170586,-6.23612 l 59.080701,33.780291 c 1.69165,11.627873 11.687,20.565275 23.78392,20.565275 13.28323,0 24.04699,-10.763761 24.04699,-24.046988 0,-3.58603 -0.79012,-6.985751 -2.19734,-10.04279 l 57.19282,-66.059574 c 2.2908,0.72447 4.72705,1.114141 7.25743,1.114141 13.28323,0 24.04699,-10.76376 24.04699,-24.046988 0,-13.283216 -10.76376,-24.062455 -24.04699,-24.062455 z"
         id="path3597-9"
         inkscape:connector-curvature="0" />
    </g>
    <g
       id="g4515">
      <path
         inkscape:connector-curvature="0"
         id="path2985-1"
         d="m 800.9688,-324.33036 c 11.486,0.49597 23.5079,-1.42835 34.6562,1.125 3.5212,8.3725 0.3975,17.79438 1.4558,26.59371 -0.3548,23.60484 1.0678,47.50476 -0.8093,70.92572 -7.0048,4.79469 -16.6852,3.97942 -24.5215,7.10557 -48.1007,13.11285 -91.98626,40.89601 -124.65625,78.375 -7.1774,3.08207 -12.68873,-5.05287 -18.88874,-7.202 -20.85691,-12.60416 -43.10077,-23.63012 -63.13032,-37.44546 -0.57092,-7.93005 6.90008,-13.9857 9.76609,-21.0863 2.0504,-4.58955 10.45696,-13.51114 0.13067,-9.66535 -39.71965,5.90387 -79.4393,11.80774 -119.15895,17.71161 15.5,39.25 31,78.5 46.5,117.750003 6.0829,-9.7873 10.50155,-21.054863 18.31253,-29.515313 6.313,1.01502 12.17523,6.12322 18.24278,8.85595 19.44357,11.291733 38.96739,22.577783 58.28844,33.784363 6.37237,3.43296 0.007,10.36125 -0.625,15.4375 -16.23233,50.3793799 -16.73444,105.79827 -0.83018,156.343197 1.70199,4.26999 3.28654,9.58772 -1.98232,11.81305 -23.60917,13.48671 -46.97619,27.74975 -71.03125,40.65625 -6.27971,-0.67839 -7.99004,-8.75732 -11.03125,-13.40625 -3.27562,-5.25101 -6.28712,-10.67548 -9.40625,-16.03125 -15.47917,39.22917 -30.95833,78.45833 -46.4375,117.6875 41.72917,6.1875 83.45833,12.375 125.1875,18.5625 -5.42592,-10.19528 -12.99453,-19.6892 -16.44989,-30.68732 4.48065,-5.21972 12.24165,-8.04918 18.11544,-12.10083 18.02999,-10.41008 36.14627,-20.84381 54.2407,-31.21185 6.83207,-2.59551 9.19835,6.41045 13.375,9.625 37.22005,41.12621 88.61355,70.03404 143.59375,79.75 6.31,4.63337 1.9927,13.43708 3.2425,19.93747 -0.5046,22.13435 1.1144,44.57169 -0.846,66.51946 -6.2057,4.5186 -14.8803,1.05037 -22.1465,2.13682 -4.0843,0.94037 -17.8384,-2.78976 -9.9854,3.91637 25.1722,31.71538 50.3444,63.43075 75.5166,95.14613 26.2292,-33.04167 52.4584,-66.08333 78.6876,-99.125 -11.4861,-0.49597 -23.508,1.42835 -34.6563,-1.125 -3.4796,-8.1299 -0.4567,-17.28669 -1.4532,-25.84369 0.3502,-19.80021 -1.0696,-39.9047 0.8067,-59.51949 7,-4.78406 16.642,-3.9446 24.4278,-7.07432 50.4157,-13.71792 96.2882,-43.61774 129.375,-83.84375 7.2158,-3.24317 12.6317,4.97765 18.9551,7.13299 19.353,11.76424 39.9717,21.84208 58.4389,34.76447 0.5659,7.93964 -6.9039,13.99601 -9.768,21.08521 -2.0556,4.58204 -10.4575,13.48312 -0.1285,9.63664 39.7195,-5.89394 79.4391,-11.78787 119.1587,-17.68181 -15.5,-39.26042 -31,-78.52083 -46.5,-117.78125 -6.0703,9.80178 -10.5055,21.07554 -18.3125,29.54656 -6.6031,-1.16537 -12.7577,-6.42169 -19.0854,-9.3735 -18.5422,-10.45881 -36.7554,-21.71933 -55.2896,-31.82931 -5.9684,-5.06329 0.8086,-12.67103 1.3872,-18.643497 14.6684,-51.92124 12.4016,-108.51656 -6.5435,-158.95025 0.7889,-7.85955 10.5916,-8.46351 15.6196,-12.83764 21.0009,-11.46651 41.2706,-25.0664 62.8464,-35.300123 6.7431,2.92401 8.0907,11.781523 12.3788,17.253193 2.8178,2.48268 6.5422,17.1222 8.53,8.47639 14.9897,-37.978533 29.9793,-75.957053 44.969,-113.935573 -41.7292,-6.19791 -83.4583,-12.39583 -125.1875,-18.59375 5.4362,10.22159 12.9823,19.71303 16.4499,30.71857 -4.4233,5.15671 -12.0782,7.99251 -17.8957,11.97753 -19.7908,11.30267 -39.4553,22.94689 -59.4292,34.02265 -5.7283,2.62886 -8.1221,-5.50732 -12.1563,-8.21875 -36.1991,-37.86521 -84.467,-64.98056 -136.1562,-75 -6.6636,-0.0424 -7.631,-5.76624 -6.8025,-11.31238 -0.1582,-28.9841 -0.4663,-58.15572 0.2327,-87.02383 5.0216,-6.26993 13.8625,-1.63594 20.6323,-3.07004 3.4774,-1.2335 17.6174,2.68303 13.2287,-2.34982 -25.5866,-32.23756 -51.1733,-64.47512 -76.76,-96.71268 -26.2291,33.04167 -52.4583,66.08334 -78.6874,99.125 z m 76.7812,129.03125 c 75.6418,-1.40147 150.0703,39.3685 190.2605,103.278073 40.8138,63.26296 46.2177,147.67448 13.4435,215.559557 C 1050.2461,189.90841 984.6624,238.91749 911.7917,248.845 840.8098,259.55327 765.4741,233.40418 716.77201,180.63233 668.8534,130.01308 646.96869,56.146543 659.99733,-12.426057 672.81441,-84.008767 722.9802,-147.75216 789.75,-176.45536 c 27.6548,-12.17427 57.7258,-18.63403 88,-18.84375 z"
         style="fill:#1a1a1a;fill-opacity:1;stroke:#000000;stroke-width:0;stroke-linecap:round;stroke-linejoin:round;stroke-miterlimit:4;stroke-opacity:1;stroke-dasharray:none" />
      <path
         style="font-size:medium;font-style:normal;font-variant:normal;font-weight:normal;font-stretch:normal;text-indent:0;text-align:start;text-decoration:none;line-height:normal;letter-spacing:normal;word-spacing:normal;text-transform:none;direction:ltr;block-progression:tb;writing-mode:lr-tb;text-anchor:start;baseline-shift:baseline;color:#000000;fill:#000000;fill-opacity:1;stroke:none;stroke-width:42.20000076;marker:none;visibility:visible;display:inline;overflow:visible;enable-background:accumulate;font-family:Sans;-inkscape-font-specification:Sans"
         d="m 1020.7814,-81.828533 c -13.2833,0 -24.04697,10.77924 -24.04697,24.06245 0,3.01781 0.5635,5.89588 1.5783,8.55727 l -58.09029,67.11183 c -1.84191,-0.45173 -3.7597,-0.69634 -5.74091,-0.69634 -6.73559,0 -12.82579,2.7805 -17.1919,7.24195 l -57.8737,-33.0994206 c -0.92639,-12.4368194 -11.296,-22.2365094 -23.9696,-22.2365094 -13.2833,0 -24.047,10.76376 -24.047,24.0469894 0,2.99358 0.548,5.85174 1.5474,8.49537 l -66.7559,76.9379706 c -2.4063,-0.80801 -4.9813,-1.25341 -7.6598,-1.25341 -13.28317,0 -24.04697,10.76376 -24.04697,24.046993 0,13.28322 10.7638,24.06245 24.04697,24.06245 13.2832,0 24.047,-10.77923 24.047,-24.06245 0,-2.871276 -0.5007,-5.617536 -1.42359,-8.170423 l 66.95709,-77.15461 c 2.3139,0.74073 4.775,1.1451 7.3348,1.1451 6.2265,0 11.89931,-2.35406 16.1705,-6.23612 l 59.0807,33.78029 c 1.6917,11.62787 11.687,20.56527 23.784,20.56527 13.2832,0 24.047,-10.76376 24.047,-24.04698 0,-3.58603 -0.7902,-6.98576 -2.1974,-10.04279 l 57.19277,-66.05958 c 2.2908,0.72447 4.7271,1.11414 7.2575,1.11414 13.2832,0 24.047,-10.76376 24.047,-24.04699 0,-13.28321 -10.7638,-24.06245 -24.047,-24.06245 z"
         id="path3597-9-3"
         inkscape:connector-curvature="0" />
    </g>
    <path
       style="fill:#1a1a1a;fill-opacity:1;stroke:#000000;stroke-width:0;stroke-linecap:round;stroke-linejoin:round;stroke-miterlimit:4;stroke-opacity:1;stroke-dasharray:none"
       d="m -2247.6064,-283.22486 c -82.1651,0.32134 -162.1898,43.64907 -208.073,111.70893 -39.9852,58.35788 -53.9776,133.750485 -37.5179,202.624045 17.8147,76.595105 72.7285,143.037805 144.7396,174.851805 71.5929,32.1074 158.2133,28.9221 226.7333,-9.1713 70.0421,-38.1452 120.3103,-110.021603 130.7117,-189.2635048 9.5155,-68.7735202 -9.9624,-141.0754452 -53.6825,-194.9401752 -48.376,-60.70659 -125.061,-97.48763 -202.9112,-95.8098 z m 1.3125,32.375 c 76.4956,-1.42132 151.7435,40.22696 191.6451,105.32634 37.8495,60.229765 44.1704,138.9156252 16.2924,204.329935 -28.6567,68.795405 -93.492,121.095405 -167.0633,133.441305 -68.501,12.324 -142.0902,-9.4435 -192.343,-57.6913 -50.423,-47.285703 -76.6798,-118.922105 -68.3875,-187.681185 8.1314,-74.313665 56.3005,-142.741015 123.7226,-175.040995 29.8396,-14.61698 62.8837,-22.42767 96.1337,-22.6841 z"
       id="path2985-4"
       inkscape:connector-curvature="0" />
    <path
       style="fill:#1a1a1a;fill-opacity:1;stroke:#000000;stroke-width:0;stroke-linecap:round;stroke-linejoin:round;stroke-miterlimit:4;stroke-opacity:1;stroke-dasharray:none"
       d="m -1516.8564,-379.49272 c 11.486,0.49597 23.5079,-1.42835 34.6562,1.125 3.5212,8.3725 0.3975,17.79438 1.4558,26.59371 -0.3548,23.60484 1.0678,47.50476 -0.8093,70.92572 -7.0048,4.79469 -16.6852,3.97942 -24.5215,7.10557 -48.1007,13.11285 -91.9863,40.89601 -124.6562,78.375 -7.1774,3.08207 -12.6888,-5.05287 -18.8888,-7.202 -20.8569,-12.60416 -43.1008,-23.63012 -63.1303,-37.44546 -0.5709,-7.93005 6.9001,-13.9857 9.7661,-21.0863 2.0504,-4.58955 10.4569,-13.51114 0.1307,-9.66535 -39.7197,5.90387 -79.4393,11.80774 -119.159,17.71161 15.5,39.25 31,78.5 46.5,117.75 6.0829,-9.7873 10.5016,-21.05486 18.3125,-29.51531 6.313,1.01502 12.1753,6.12322 18.2428,8.85595 19.4436,11.29173 38.9674,22.57778 58.2885,33.78436 6.3723,3.43296 0.01,10.36125 -0.625,15.4375 -16.2324,50.379375 -16.7345,105.79823515 -0.8302,156.343235 1.702,4.2699 3.2865,9.5877 -1.9823,11.813 -23.6092,13.4867 -46.9762,27.749802 -71.0313,40.656305 -6.2797,-0.6784 -7.99,-8.757403 -11.0312,-13.406303 -3.2757,-5.251 -6.2872,-10.6755 -9.4063,-16.031202 -15.4792,39.229105 -30.9583,78.458305 -46.4375,117.687505 41.7292,6.1875 83.4583,12.375 125.1875,18.5625 -5.4259,-10.1953 -12.9945,-19.6892 -16.4499,-30.6874 4.4807,-5.2197 12.2417,-8.0491 18.1155,-12.1008 18.0299,-10.4101 36.1462,-20.8438 54.2407,-31.2118 6.832,-2.5956 9.1983,6.4104 13.375,9.625 37.22,41.1262 88.6135,70.034 143.5937,79.75 6.31,4.6333 1.9927,13.437 3.2425,19.9374 -0.5046,22.1344 1.1144,44.5717 -0.846,66.5195 -6.2057,4.5186 -14.8803,1.0504 -22.1465,2.1368 -4.0843,0.9404 -17.8384,-2.7898 -9.9854,3.9164 25.1722,31.7154 50.3444,63.4307 75.5166,95.1461 26.2292,-33.0417 52.4584,-66.0833 78.6876,-99.125 -11.4861,-0.496 -23.508,1.4284 -34.6563,-1.125 -3.4796,-8.1299 -0.4567,-17.2867 -1.4532,-25.8437 0.3502,-19.8002 -1.0696,-39.9047 0.8067,-59.5195 7,-4.784 16.642,-3.9446 24.4278,-7.0743 50.4157,-13.7179 96.2882,-43.6177 129.375,-83.8437 7.2158,-3.2432 12.6317,4.9776 18.9551,7.1329 19.353,11.7643 39.9717,21.8421 58.4389,34.7645 0.5659,7.9397 -6.9039,13.996 -9.768,21.0852 -2.0556,4.5821 -10.4575,13.4831 -0.1285,9.6367 39.7195,-5.894 79.4391,-11.7879 119.1587,-17.6818 -15.5,-39.2605 -31,-78.5209 -46.5,-117.781305 -6.0703,9.801802 -10.5055,21.075502 -18.3125,29.546605 -6.6031,-1.1654 -12.7577,-6.421703 -19.0854,-9.373503 -18.5422,-10.4588 -36.7554,-21.719402 -55.2896,-31.829302 -5.9684,-5.0633 0.8086,-12.6711 1.3872,-18.6435 14.6684,-51.9212798 12.4016,-108.5166 -6.5435,-158.950285 0.7889,-7.85955 10.5916,-8.46351 15.6196,-12.83764 21.0009,-11.46651 41.2706,-25.0664 62.8464,-35.30012 6.7431,2.92401 8.0907,11.78152 12.3788,17.25319 2.8178,2.48268 6.5422,17.1222 8.53,8.47639 14.9897,-37.97853 29.9793,-75.95705 44.969,-113.93557 -41.7292,-6.19791 -83.4583,-12.39583 -125.1875,-18.59375 5.4362,10.22159 12.9823,19.71303 16.4499,30.71857 -4.4233,5.15671 -12.0782,7.99251 -17.8957,11.97753 -19.7908,11.30267 -39.4553,22.94689 -59.4292,34.02265 -5.7283,2.62886 -8.1221,-5.50732 -12.1563,-8.21875 -36.1991,-37.86521 -84.467,-64.98056 -136.1562,-75 -6.6636,-0.0424 -7.631,-5.76624 -6.8025,-11.31238 -0.1582,-28.9841 -0.4663,-58.15572 0.2327,-87.02383 5.0216,-6.26993 13.8625,-1.63594 20.6323,-3.07004 3.4774,-1.2335 17.6174,2.68303 13.2287,-2.34982 -25.5866,-32.23756 -51.1733,-64.47512 -76.76,-96.71268 -26.2291,33.04167 -52.4583,66.08334 -78.6874,99.125 z m 76.7812,129.03125 c 75.6418,-1.40147 150.0703,39.3685 190.2605,103.27807 40.8138,63.262955 46.2177,147.67451515 13.4435,215.559515 -31.2079,66.369905 -96.7916,115.379005 -169.6623,125.306505 -70.9819,10.7083 -146.3176,-15.4408 -195.0197,-68.2127 -47.9186,-50.619205 -69.8033,-124.48570485 -56.7747,-193.058345 12.8171,-71.582705 62.9829,-135.326095 129.7527,-164.029295 27.6548,-12.17427 57.7258,-18.63403 88,-18.84375 z"
       id="path2985-1-17"
       inkscape:connector-curvature="0" />
    <path
       inkscape:connector-curvature="0"
       id="path3597-9-6"
       d="m -2107.9046,-139.35233 c -13.2833,0 -24.047,10.77924 -24.047,24.06245 0,3.01781 0.5635,5.89588 1.5783,8.55727 l -58.0903,67.111825 c -1.8419,-0.45173 -3.7597,-0.69634 -5.7409,-0.69634 -6.7356,0 -12.8257,2.7805 -17.1919,7.24194 l -57.8737,-33.09942 c -0.9264,-12.43681 -11.296,-22.2365 -23.9696,-22.2365 -13.2833,0 -24.047,10.76376 -24.047,24.04699 0,2.99357 0.5481,5.85174 1.5474,8.49537 l -66.7559,76.93796 c -2.4063,-0.808 -4.9813,-1.2534 -7.6598,-1.2534 -13.2832,0 -24.047,10.7638 -24.047,24.047 0,13.2832 10.7638,24.0624 24.047,24.0624 13.2833,0 24.047,-10.7792 24.047,-24.0624 0,-2.8713 -0.5007,-5.6175 -1.4236,-8.1704 l 66.9571,-77.15464 c 2.3139,0.74073 4.775,1.1451 7.3348,1.1451 6.2265,0 11.8993,-2.35406 16.1706,-6.23612 l 59.0807,33.78029 c 1.6916,11.6278702 11.687,20.5652702 23.7839,20.5652702 13.2832,0 24.047,-10.7638 24.047,-24.0469902 0,-3.58603 -0.7901,-6.98575 -2.1974,-10.04279 l 57.1928,-66.05957 c 2.2908,0.72447 4.7271,1.11414 7.2575,1.11414 13.2832,0 24.047,-10.763755 24.047,-24.046985 0,-13.28321 -10.7638,-24.06245 -24.047,-24.06245 z"
       style="font-size:medium;font-style:normal;font-variant:normal;font-weight:normal;font-stretch:normal;text-indent:0;text-align:start;text-decoration:none;line-height:normal;letter-spacing:normal;word-spacing:normal;text-transform:none;direction:ltr;block-progression:tb;writing-mode:lr-tb;text-anchor:start;baseline-shift:baseline;color:#000000;fill:#000000;fill-opacity:1;stroke:none;stroke-width:42.20000076;marker:none;visibility:visible;display:inline;overflow:visible;enable-background:accumulate;font-family:Sans;-inkscape-font-specification:Sans" />
    <path
       inkscape:connector-curvature="0"
       id="path3597-9-3-9"
       d="m -1302.4143,-132.15327 c -13.2833,0 -24.047,10.77924 -24.047,24.06245 0,3.01781 0.5635,5.89588 1.5783,8.557265 l -58.0903,67.11183 c -1.8419,-0.45173 -3.7597,-0.69634 -5.7409,-0.69634 -6.7356,0 -12.8258,2.7805 -17.1919,7.24195 l -57.8737,-33.09942 c -0.9264,-12.43682 -11.296,-22.23651 -23.9696,-22.23651 -13.2833,0 -24.047,10.76376 -24.047,24.04699 0,2.99358 0.548,5.85174 1.5474,8.49537 l -66.7559,76.938 c -2.4063,-0.808 -4.9813,-1.2534 -7.6598,-1.2534 -13.2832,0 -24.047,10.7637 -24.047,24.047 0,13.2832 10.7638,24.0624 24.047,24.0624 13.2832,0 24.047,-10.7792 24.047,-24.0624 0,-2.8713 -0.5007,-5.6176 -1.4236,-8.1705 l 66.9571,-77.15458 c 2.3139,0.74073 4.775,1.1451 7.3348,1.1451 6.2265,0 11.8993,-2.35406 16.1705,-6.23612 l 59.0807,33.7803002 c 1.6917,11.6279 11.687,20.5652998 23.784,20.5652998 13.2832,0 24.047,-10.7637998 24.047,-24.0470198 0,-3.5860302 -0.7902,-6.9857602 -2.1974,-10.0427902 l 57.1928,-66.05958 c 2.2908,0.72447 4.7271,1.11414 7.2575,1.11414 13.2832,0 24.047,-10.76376 24.047,-24.046985 0,-13.28321 -10.7638,-24.06245 -24.047,-24.06245 z"
       style="font-size:medium;font-style:normal;font-variant:normal;font-weight:normal;font-stretch:normal;text-indent:0;text-align:start;text-decoration:none;line-height:normal;letter-spacing:normal;word-spacing:normal;text-transform:none;direction:ltr;block-progression:tb;writing-mode:lr-tb;text-anchor:start;baseline-shift:baseline;color:#000000;fill:#000000;fill-opacity:1;stroke:none;stroke-width:42.20000076;marker:none;visibility:visible;display:inline;overflow:visible;enable-background:accumulate;font-family:Sans;-inkscape-font-specification:Sans" />
    <path
       style="fill:#1a1a1a;fill-opacity:1;stroke:#000000;stroke-width:0;stroke-linecap:round;stroke-linejoin:round;stroke-miterlimit:4;stroke-opacity:1;stroke-dasharray:none"
       d="m -2241.8921,734.77514 c -82.1651,0.32134 -162.1897,43.64907 -208.073,111.70893 -39.9852,58.35788 -53.9775,133.75049 -37.5178,202.62403 17.8146,76.5951 72.7285,143.0378 144.7396,174.8518 71.5928,32.1075 158.2131,28.9221 226.7332,-9.1713 70.0421,-38.1451 120.3103,-110.0216 130.7117,-189.2634 9.5155,-68.77365 -9.9624,-141.07553 -53.6825,-194.94026 -48.376,-60.70659 -125.0611,-97.48763 -202.9112,-95.8098 z m 1.3125,32.375 c 76.4956,-1.42132 151.7435,40.22696 191.6451,105.32634 37.8495,60.22977 44.1704,138.91572 16.2924,204.32992 -28.6567,68.7955 -93.492,121.0955 -167.0634,133.4414 -68.5009,12.324 -142.09,-9.4435 -192.3428,-57.6914 -50.4231,-47.2856 -76.6799,-118.9221 -68.3876,-187.68115 8.1314,-74.31368 56.3005,-142.74103 123.7226,-175.04101 29.8396,-14.61698 62.8837,-22.42767 96.1337,-22.6841 z"
       id="path2985-07"
       inkscape:connector-curvature="0" />
    <path
       style="fill:#1a1a1a;fill-opacity:1;stroke:#000000;stroke-width:0;stroke-linecap:round;stroke-linejoin:round;stroke-miterlimit:4;stroke-opacity:1;stroke-dasharray:none"
       d="m -1511.1421,638.50728 c 11.486,0.49597 23.5079,-1.42835 34.6562,1.125 3.5212,8.3725 0.3975,17.79438 1.4558,26.59371 -0.3548,23.60484 1.0678,47.50476 -0.8093,70.92572 -7.0048,4.79469 -16.6852,3.97942 -24.5215,7.10557 -48.1007,13.11285 -91.9863,40.89601 -124.6562,78.375 -7.1774,3.08207 -12.6888,-5.05287 -18.8888,-7.202 -20.8569,-12.60416 -43.1008,-23.63012 -63.1303,-37.44546 -0.5709,-7.93005 6.9001,-13.9857 9.7661,-21.0863 2.0504,-4.58955 10.4569,-13.51114 0.1307,-9.66535 -39.7197,5.90387 -79.4393,11.80774 -119.159,17.71161 15.5,39.25 31,78.5 46.5,117.75 6.0829,-9.7873 10.5016,-21.05486 18.3125,-29.51531 6.313,1.01502 12.1753,6.12322 18.2428,8.85595 19.4436,11.29173 38.9674,22.57778 58.2885,33.78436 6.3723,3.43296 0.01,10.36125 -0.625,15.4375 -16.2324,50.37937 -16.7345,105.79832 -0.8302,156.34322 1.702,4.27 3.2865,9.5877 -1.9823,11.8131 -23.6092,13.4867 -46.9762,27.7497 -71.0313,40.6562 -6.2797,-0.6784 -7.99,-8.7573 -11.0312,-13.4062 -3.2757,-5.251 -6.2872,-10.6755 -9.4063,-16.0313 -15.4792,39.2292 -30.9583,78.4584 -46.4375,117.6875 41.7292,6.1875 83.4583,12.375 125.1875,18.5625 -5.4259,-10.1953 -12.9945,-19.6892 -16.4499,-30.6873 4.4807,-5.2197 12.2417,-8.0492 18.1155,-12.1008 18.0299,-10.4101 36.1462,-20.8438 54.2407,-31.2119 6.832,-2.5955 9.1983,6.4105 13.375,9.625 37.22,41.1262 88.6135,70.0341 143.5937,79.75 6.31,4.6334 1.9927,13.4371 3.2425,19.9375 -0.5046,22.1343 1.1144,44.5717 -0.846,66.5195 -6.2057,4.5186 -14.8803,1.0503 -22.1465,2.1368 -4.0843,0.9403 -17.8384,-2.7898 -9.9854,3.9163 25.1722,31.7154 50.3444,63.4308 75.5166,95.1462 26.2292,-33.0417 52.4584,-66.0834 78.6876,-99.125 -11.4861,-0.496 -23.508,1.4283 -34.6563,-1.125 -3.4796,-8.1299 -0.4567,-17.2867 -1.4532,-25.8437 0.3502,-19.8002 -1.0696,-39.9047 0.8067,-59.5195 7,-4.7841 16.642,-3.9446 24.4278,-7.0743 50.4157,-13.7179 96.2882,-43.6178 129.375,-83.8438 7.2158,-3.2431 12.6317,4.9777 18.9551,7.133 19.353,11.7643 39.9717,21.8421 58.4389,34.7645 0.5659,7.9396 -6.9039,13.996 -9.768,21.0852 -2.0556,4.582 -10.4575,13.4831 -0.1285,9.6366 39.7195,-5.8939 79.4391,-11.7878 119.1587,-17.6818 -15.5,-39.2604 -31,-78.5208 -46.5,-117.7812 -6.0703,9.8018 -10.5055,21.0755 -18.3125,29.5465 -6.6031,-1.1653 -12.7577,-6.4217 -19.0854,-9.3735 -18.5422,-10.4588 -36.7554,-21.7193 -55.2896,-31.8293 -5.9684,-5.0633 0.8086,-12.671 1.3872,-18.6435 14.6684,-51.9212 12.4016,-108.51655 -6.5435,-158.95027 0.7889,-7.85955 10.5916,-8.46351 15.6196,-12.83764 21.0009,-11.46651 41.2706,-25.0664 62.8464,-35.30012 6.7431,2.92401 8.0907,11.78152 12.3788,17.25319 2.8178,2.48268 6.5422,17.1222 8.53,8.47639 14.9897,-37.97853 29.9793,-75.95705 44.969,-113.93557 -41.7292,-6.19791 -83.4583,-12.39583 -125.1875,-18.59375 5.4362,10.22159 12.9823,19.71303 16.4499,30.71857 -4.4233,5.15671 -12.0782,7.99251 -17.8957,11.97753 -19.7908,11.30267 -39.4553,22.94689 -59.4292,34.02265 -5.7283,2.62886 -8.1221,-5.50732 -12.1563,-8.21875 -36.1991,-37.86521 -84.467,-64.98056 -136.1562,-75 -6.6636,-0.0424 -7.631,-5.76624 -6.8025,-11.31238 -0.1582,-28.9841 -0.4663,-58.15572 0.2327,-87.02383 5.0216,-6.26993 13.8625,-1.63594 20.6323,-3.07004 3.4774,-1.2335 17.6174,2.68303 13.2287,-2.34982 -25.5866,-32.23756 -51.1733,-64.47512 -76.76,-96.71268 -26.2291,33.04167 -52.4583,66.08334 -78.6874,99.125 z m 76.7812,129.03125 c 75.6418,-1.40147 150.0703,39.3685 190.2605,103.27807 40.8138,63.26295 46.2177,147.6745 13.4435,215.5596 -31.2079,66.3699 -96.7916,115.379 -169.6623,125.3065 -70.9819,10.7083 -146.3176,-15.4408 -195.0197,-68.2127 -47.9186,-50.6192 -69.8033,-124.4858 -56.7747,-193.05845 12.8171,-71.58268 62.9829,-135.32607 129.7527,-164.02927 27.6548,-12.17427 57.7258,-18.63403 88,-18.84375 z"
       id="path2985-1-16"
       inkscape:connector-curvature="0" />
    <path
       inkscape:connector-curvature="0"
       id="path3597-9-1"
       d="m -2102.1903,878.64767 c -13.2833,0 -24.047,10.77924 -24.047,24.06245 0,3.01781 0.5635,5.89588 1.5783,8.55727 l -58.0903,67.11187 c -1.8419,-0.4518 -3.7597,-0.6964 -5.7409,-0.6964 -6.7356,0 -12.8258,2.7805 -17.1919,7.242 l -57.8737,-33.09951 c -0.9264,-12.4368 -11.296,-22.2365 -23.9696,-22.2365 -13.2832,0 -24.047,10.7638 -24.047,24.047 0,2.9936 0.5481,5.8518 1.5474,8.4954 l -66.7559,76.93805 c -2.4063,-0.808 -4.9812,-1.2534 -7.6597,-1.2534 -13.2833,0 -24.047,10.7637 -24.047,24.047 0,13.2832 10.7637,24.0624 24.047,24.0624 13.2832,0 24.047,-10.7792 24.047,-24.0624 0,-2.8713 -0.5008,-5.6176 -1.4237,-8.1705 l 66.9571,-77.15465 c 2.3139,0.74081 4.775,1.14511 7.3348,1.14511 6.2265,0 11.8994,-2.35401 16.1706,-6.23611 l 59.0806,33.78035 c 1.6917,11.6279 11.687,20.5653 23.784,20.5653 13.2832,0 24.047,-10.7638 24.047,-24.047 0,-3.58614 -0.7902,-6.98584 -2.1974,-10.04284 l 57.1928,-66.05961 c 2.2908,0.7245 4.7271,1.1142 7.2575,1.1142 13.2832,0 24.047,-10.7638 24.047,-24.04703 0,-13.28321 -10.7638,-24.06245 -24.047,-24.06245 z"
       style="font-size:medium;font-style:normal;font-variant:normal;font-weight:normal;font-stretch:normal;text-indent:0;text-align:start;text-decoration:none;line-height:normal;letter-spacing:normal;word-spacing:normal;text-transform:none;direction:ltr;block-progression:tb;writing-mode:lr-tb;text-anchor:start;baseline-shift:baseline;color:#000000;fill:#000000;fill-opacity:1;stroke:none;stroke-width:42.20000076;marker:none;visibility:visible;display:inline;overflow:visible;enable-background:accumulate;font-family:Sans;-inkscape-font-specification:Sans" />
    <path
       inkscape:connector-curvature="0"
       id="path3597-9-3-4"
       d="m -1296.7,885.84673 c -13.2833,0 -24.047,10.77924 -24.047,24.06245 0,3.01781 0.5635,5.89588 1.5783,8.55727 l -58.0903,67.11181 c -1.8419,-0.4517 -3.7597,-0.6963 -5.7409,-0.6963 -6.7356,0 -12.8258,2.7805 -17.1919,7.2419 l -57.8737,-33.09941 c -0.9264,-12.4368 -11.296,-22.2365 -23.9696,-22.2365 -13.2833,0 -24.047,10.7638 -24.047,24.047 0,2.9936 0.548,5.8517 1.5474,8.4954 l -66.7559,76.93795 c -2.4063,-0.808 -4.9813,-1.2534 -7.6598,-1.2534 -13.2832,0 -24.047,10.7638 -24.047,24.047 0,13.2832 10.7638,24.0625 24.047,24.0625 13.2832,0 24.047,-10.7793 24.047,-24.0625 0,-2.8713 -0.5007,-5.6175 -1.4236,-8.1704 l 66.9571,-77.15464 c 2.3139,0.7407 4.775,1.1451 7.3348,1.1451 6.2265,0 11.8993,-2.3541 16.1705,-6.2361 l 59.0807,33.78034 c 1.6917,11.6278 11.687,20.5652 23.784,20.5652 13.2832,0 24.047,-10.7637 24.047,-24.047 0,-3.586 -0.7902,-6.9857 -2.1974,-10.04274 l 57.1928,-66.05961 c 2.2908,0.7244 4.7271,1.1141 7.2575,1.1141 13.2832,0 24.047,-10.7637 24.047,-24.04697 0,-13.28321 -10.7638,-24.06245 -24.047,-24.06245 z"
       style="font-size:medium;font-style:normal;font-variant:normal;font-weight:normal;font-stretch:normal;text-indent:0;text-align:start;text-decoration:none;line-height:normal;letter-spacing:normal;word-spacing:normal;text-transform:none;direction:ltr;block-progression:tb;writing-mode:lr-tb;text-anchor:start;baseline-shift:baseline;color:#000000;fill:#000000;fill-opacity:1;stroke:none;stroke-width:42.20000076;marker:none;visibility:visible;display:inline;overflow:visible;enable-background:accumulate;font-family:Sans;-inkscape-font-specification:Sans" />
    <g
       id="g4524">
      <path
         inkscape:connector-curvature="0"
         id="path2985-0"
         d="m 66.67929,756.77513 c -82.16512,0.32134 -162.18973,43.64907 -208.07299,111.70893 -39.9852,58.35788 -53.9776,133.75054 -37.5179,202.62404 17.8147,76.5951 72.72855,143.0378 144.73964,174.8518 71.59285,32.1074 158.21323,28.9221 226.73334,-9.1713 70.04206,-38.1451 120.31029,-110.0216 130.71166,-189.2635 9.51551,-68.77351 -9.96236,-141.07544 -53.68255,-194.94017 C 221.2145,791.87834 144.52948,755.0973 66.67929,756.77513 z m 1.3125,32.375 c 76.49564,-1.42132 151.74352,40.22696 191.64514,105.32634 37.84952,60.22977 44.1704,138.91563 16.29236,204.32993 -28.65669,68.7955 -93.49194,121.0954 -167.06332,133.4413 -68.50094,12.3241 -142.09013,-9.4434 -192.34293,-57.6913 -50.42304,-47.2857 -76.67984,-118.9221 -68.38754,-187.68117 8.1314,-74.31367 56.30048,-142.74102 123.72259,-175.041 29.8396095,-14.61698 62.88368,-22.42767 96.1337,-22.6841 z"
         style="fill:#1a1a1a;fill-opacity:1;stroke:#000000;stroke-width:0;stroke-linecap:round;stroke-linejoin:round;stroke-miterlimit:4;stroke-opacity:1;stroke-dasharray:none" />
      <text
         sodipodi:linespacing="125%"
         id="text3718"
         y="1191.2716"
         x="-42.39843"
         style="font-size:542.1741333px;font-style:normal;font-variant:normal;font-weight:500;font-stretch:normal;text-align:start;line-height:125%;letter-spacing:0px;word-spacing:0px;writing-mode:lr-tb;text-anchor:start;fill:#000000;fill-opacity:1;stroke:none;font-family:Pfennig;-inkscape-font-specification:Pfennig Medium"
         xml:space="preserve"><tspan
           y="1191.2716"
           x="-42.39843"
           id="tspan3720"
           sodipodi:role="line">$</tspan></text>
    </g>
    <g
       id="g4519">
      <path
         inkscape:connector-curvature="0"
         id="path2985-1-1"
         d="m 797.42934,660.50724 c 11.486,0.496 23.50787,-1.4283 34.65617,1.125 3.5212,8.3725 0.3975,17.7944 1.4558,26.5937 -0.3548,23.60488 1.0678,47.5048 -0.8093,70.92576 -7.0048,4.79469 -16.6852,3.97942 -24.52147,7.10557 -48.1007,13.11285 -91.98626,40.89601 -124.65625,78.375 -7.1774,3.08207 -12.68873,-5.05287 -18.88874,-7.202 -20.85691,-12.60416 -43.10077,-23.63012 -63.13032,-37.44546 -0.57092,-7.93005 6.90008,-13.9857 9.76609,-21.0863 2.0504,-4.58955 10.45696,-13.51114 0.13067,-9.66535 -39.71965,5.90387 -79.4393,11.80774 -119.15895,17.71161 15.5,39.25 31,78.5 46.5,117.75 6.0829,-9.7873 10.50155,-21.05486 18.31253,-29.51531 6.313,1.01502 12.17523,6.12322 18.24278,8.85595 19.44357,11.29173 38.96739,22.57778 58.28844,33.78436 6.37237,3.43296 0.007,10.36125 -0.625,15.4375 -16.23233,50.37938 -16.73444,105.79823 -0.83018,156.34323 1.70199,4.27 3.28654,9.5877 -1.98232,11.813 -23.60917,13.4867 -46.97619,27.7498 -71.03125,40.6563 -6.27971,-0.6784 -7.99004,-8.7573 -11.03125,-13.4063 -3.27562,-5.251 -6.28712,-10.6755 -9.40625,-16.0312 -15.47917,39.2291 -30.95833,78.4583 -46.4375,117.6875 41.72917,6.1875 83.45833,12.375 125.1875,18.5625 -5.42592,-10.1953 -12.99453,-19.6892 -16.44989,-30.6873 4.48065,-5.2198 12.24165,-8.0492 18.11544,-12.1009 18.02999,-10.4101 36.14627,-20.8438 54.2407,-31.2118 6.83207,-2.5955 9.19835,6.4104 13.375,9.625 37.22005,41.1262 88.61355,70.034 143.59372,79.75 6.31,4.6333 1.9927,13.4371 3.2425,19.9374 -0.5046,22.1344 1.1144,44.5717 -0.846,66.5195 -6.2057,4.5186 -14.8803,1.0504 -22.14647,2.1368 -4.0843,0.9404 -17.8384,-2.7897 -9.9854,3.9164 25.17217,31.7154 50.34437,63.4307 75.51657,95.1461 26.2292,-33.0416 52.4584,-66.0833 78.6876,-99.125 -11.4861,-0.4959 -23.508,1.4284 -34.6563,-1.125 -3.4796,-8.1299 -0.4567,-17.2867 -1.4532,-25.8437 0.3502,-19.8002 -1.0696,-39.9047 0.8067,-59.5195 7,-4.784 16.642,-3.9446 24.4278,-7.0743 50.4157,-13.7179 96.28819,-43.6177 129.37499,-83.8437 7.2158,-3.2432 12.6317,4.9776 18.9551,7.133 19.353,11.7642 39.9717,21.842 58.4389,34.7644 0.5659,7.9397 -6.9039,13.996 -9.768,21.0852 -2.0556,4.5821 -10.4575,13.4832 -0.1285,9.6367 39.7195,-5.894 79.4391,-11.7879 119.1587,-17.6818 -15.5,-39.2604 -31,-78.5209 -46.5,-117.7813 -6.0703,9.8018 -10.5055,21.0756 -18.3125,29.5466 -6.6031,-1.1654 -12.7577,-6.4217 -19.0854,-9.3735 -18.5422,-10.4588 -36.7554,-21.7193 -55.2896,-31.8293 -5.9684,-5.0633 0.8086,-12.6711 1.3872,-18.6435 14.6684,-51.9213 12.4016,-108.51659 -6.5435,-158.95028 0.7889,-7.85955 10.5916,-8.46351 15.6196,-12.83764 21.0009,-11.46651 41.2706,-25.0664 62.8464,-35.30012 6.7431,2.92401 8.0907,11.78152 12.3788,17.25319 2.8178,2.48268 6.5422,17.1222 8.53,8.47639 14.9897,-37.97853 29.9793,-75.95705 44.969,-113.93557 -41.7292,-6.19791 -83.4583,-12.39583 -125.1875,-18.59375 5.4362,10.22159 12.9823,19.71303 16.4499,30.71857 -4.4233,5.15671 -12.0782,7.99251 -17.8957,11.97753 -19.7908,11.30267 -39.4553,22.94689 -59.4292,34.02265 -5.7283,2.62886 -8.1221,-5.50732 -12.1563,-8.21875 -36.1991,-37.86521 -84.46699,-64.98056 -136.15619,-75 -6.6636,-0.0424 -7.631,-5.76624 -6.8025,-11.31238 -0.1582,-28.9841 -0.4663,-58.1557 0.2327,-87.0238 5.0216,-6.27 13.8625,-1.636 20.6323,-3.0701 3.4774,-1.2335 17.6174,2.6831 13.2287,-2.3498 -25.5866,-32.2376 -51.1733,-64.4751 -76.76,-96.7127 -26.2291,33.0417 -52.4583,66.0834 -78.68737,99.125 z m 76.78117,129.03128 c 75.6418,-1.40147 150.07029,39.3685 190.26049,103.27807 40.8138,63.26296 46.2177,147.67451 13.4435,215.55961 -31.2079,66.3698 -96.79159,115.3789 -169.66229,125.3064 -70.9819,10.7083 -146.31757,-15.4408 -195.01966,-68.2126 -47.91861,-50.6193 -69.80332,-124.4858 -56.77468,-193.05843 12.81708,-71.58271 62.98287,-135.3261 129.75267,-164.0293 27.6548,-12.17427 57.72577,-18.63403 87.99997,-18.84375 z"
         style="fill:#1a1a1a;fill-opacity:1;stroke:#000000;stroke-width:0;stroke-linecap:round;stroke-linejoin:round;stroke-miterlimit:4;stroke-opacity:1;stroke-dasharray:none" />
      <text
         sodipodi:linespacing="125%"
         id="text3718-1"
         y="1185.6077"
         x="763.73743"
         style="font-size:542.1741333px;font-style:normal;font-variant:normal;font-weight:500;font-stretch:normal;text-align:start;line-height:125%;letter-spacing:0px;word-spacing:0px;writing-mode:lr-tb;text-anchor:start;fill:#000000;fill-opacity:1;stroke:none;font-family:Pfennig;-inkscape-font-specification:Pfennig Medium"
         xml:space="preserve"><tspan
           y="1185.6077"
           x="763.73743"
           id="tspan3720-0"
           sodipodi:role="line">$</tspan></text>
    </g>
  </g>
</svg>
